<?xml version="1.0" encoding="UTF-8"?><svg id="Logo" xmlns="http://www.w3.org/2000/svg" viewBox="0 0 1422.6543 789.05"><defs><style>.cls-1{fill:#0c4a6e;}.cls-2{fill:#0f172a;}.cls-3{fill:none;stroke:#0c4a6e;stroke-miterlimit:10;stroke-width:40px;}</style></defs><g><path class="cls-2" d="M614.9043,482.0869c-12.1611,0-23.2793-2.082-33.3594-6.2402-10.0801-4.1592-18.8027-10.1172-26.1602-17.8799-7.3613-7.7588-13.0801-16.958-17.1602-27.6006-4.0801-10.6387-6.1201-22.2783-6.1201-34.9199,0-12.1572,2.1602-23.4375,6.4805-33.8398,4.3193-10.3984,10.3193-19.5186,18-27.3604,7.6797-7.8374,16.6387-13.9204,26.8799-18.2397,10.2373-4.3203,21.3594-6.4805,33.3594-6.4805,8.1602,0,16.0801,1.2002,23.7607,3.6006,7.6797,2.3994,14.7178,5.7217,21.1201,9.96,6.3965,4.2417,11.7598,9.1616,16.0801,14.7603l-19.9199,21.8398c-4.1621-4.3203-8.4414-7.957-12.8408-10.9199-4.4023-2.959-8.9619-5.1973-13.6797-6.7197-4.7217-1.5195-9.5625-2.2803-14.5205-2.2803-7.3604,0-14.2793,1.3613-20.7598,4.0801-6.4795,2.7227-12.082,6.5625-16.7998,11.5195-4.7217,4.9619-8.4414,10.8418-11.1602,17.6406-2.7227,6.8018-4.0801,14.3623-4.0801,22.6797,0,8.4824,1.3203,16.1621,3.96,23.04,2.6406,6.8809,6.3975,12.8027,11.2803,17.7598,4.8789,4.9619,10.7178,8.7598,17.5205,11.4004,6.7979,2.6396,14.2793,3.96,22.4395,3.96,5.2803,0,10.3984-.7197,15.3604-2.1602,4.957-1.4404,9.5586-3.4805,13.7998-6.1201,4.2383-2.6396,8.1191-5.7188,11.6406-9.2402l15.3594,24.7207c-3.8398,4.3193-8.9629,8.2422-15.3594,11.7598-6.4023,3.5215-13.5605,6.2812-21.4805,8.2803-7.9199,1.998-15.8027,3-23.6406,3Z"/><path class="cls-2" d="M689.0625,479.6865l65.5205-168.0005h29.2793l65.04,168.0005h-32.3994l-36-95.5195c-.8027-1.9209-1.8828-4.958-3.2402-9.1201-1.3613-4.1592-2.8428-8.6777-4.4404-13.5605-1.6006-4.8789-3.041-9.4385-4.3193-13.6797-1.2832-4.2373-2.2432-7.3203-2.8799-9.2402l6-.2402c-.96,3.2031-2.082,6.8027-3.3604,10.8008-1.2822,4.001-2.6396,8.1592-4.0801,12.4795s-2.8428,8.4824-4.2002,12.4805c-1.3613,4.001-2.6025,7.6006-3.7197,10.7998l-36,94.7998h-31.2002Zm29.7598-38.4004l10.8008-27.1191h76.5596l11.5205,27.1191h-98.8809Z"/><path class="cls-2" d="M928.582,482.0869c-9.7607,0-18.7197-1.2412-26.8799-3.7207-8.1602-2.4785-15.5215-6.1982-22.0801-11.1602-6.5625-4.957-12.4014-10.957-17.5195-18l20.3994-23.0391c7.8379,10.8818,15.5176,18.4004,23.04,22.5596,7.5186,4.1621,15.998,6.2402,25.4404,6.2402,5.4375,0,10.3984-.8398,14.8799-2.5205,4.4775-1.6797,7.999-3.9971,10.5596-6.96,2.5576-2.959,3.8398-6.3594,3.8398-10.2002,0-2.7188-.5205-5.2383-1.5596-7.5596-1.042-2.3174-2.6025-4.3984-4.6797-6.2402-2.0811-1.8369-4.6426-3.5586-7.6807-5.1602-3.041-1.5967-6.4795-2.958-10.3193-4.0801-3.8398-1.1172-8.0811-2.1592-12.7207-3.1191-8.8008-1.7588-16.4805-4.1182-23.04-7.0801-6.5625-2.959-12.082-6.6377-16.5596-11.04-4.4814-4.3994-7.7627-9.3604-9.8398-14.8799-2.0811-5.5205-3.1201-11.7979-3.1201-18.8408,0-7.0381,1.5596-13.5186,4.6797-19.4395,3.1201-5.918,7.3994-11.0405,12.8398-15.3608,5.4375-4.3193,11.7607-7.6797,18.9609-10.0801,7.1992-2.3994,14.958-3.5996,23.2793-3.5996,9.4395,0,17.8799,1.1211,25.3203,3.3604,7.4395,2.2422,13.999,5.5605,19.6797,9.96,5.6777,4.4023,10.3574,9.7202,14.04,15.9604l-20.6396,20.3994c-3.2031-4.957-6.8027-9.0781-10.7998-12.3594-4.002-3.2783-8.3213-5.7607-12.96-7.4404-4.6426-1.6797-9.5215-2.5195-14.6406-2.5195-5.7598,0-10.7627,.8018-15,2.3994-4.2412,1.6016-7.5596,3.8818-9.96,6.8398-2.3994,2.9629-3.5996,6.5215-3.5996,10.6807,0,3.2021,.7197,6.041,2.1602,8.5195,1.4395,2.4824,3.4795,4.6797,6.1201,6.5996,2.6396,1.9209,6.0371,3.6006,10.1992,5.04,4.1592,1.4404,8.8799,2.7227,14.1602,3.8408,8.7979,1.7617,16.7178,4.1211,23.7598,7.0801,7.0391,2.9619,13.0391,6.4795,18,10.5596,4.958,4.0801,8.7188,8.7227,11.2803,13.9199,2.5576,5.2012,3.8398,11.0029,3.8398,17.4004,0,11.04-2.6025,20.5195-7.7998,28.4395-5.2012,7.9199-12.5215,14.0029-21.96,18.2402-9.4424,4.2373-20.4824,6.3604-33.1201,6.3604Z"/></g><path class="cls-2" d="M1359.7744,483.7393c-9.7617,0-18.7197-1.2412-26.8799-3.7207-8.1602-2.4785-15.5215-6.1982-22.0801-11.1602-6.5625-4.957-12.4014-10.957-17.5205-18l20.4004-23.0391c7.8379,10.8818,15.5176,18.4004,23.04,22.5596,7.5186,4.1621,15.9971,6.2402,25.4404,6.2402,5.4375,0,10.3984-.8398,14.8799-2.5205,4.4775-1.6797,7.998-3.9971,10.5596-6.96,2.5576-2.959,3.8398-6.3594,3.8398-10.2002,0-2.7188-.5215-5.2383-1.5596-7.5596-1.043-2.3174-2.6025-4.3984-4.6807-6.2402-2.0811-1.8369-4.6416-3.5586-7.6797-5.1602-3.041-1.5967-6.4795-2.958-10.3203-4.0801-3.8398-1.1172-8.0811-2.1592-12.7197-3.1191-8.8008-1.7588-16.4814-4.1182-23.04-7.0801-6.5625-2.959-12.082-6.6377-16.5596-11.04-4.4814-4.3994-7.7627-9.3604-9.8398-14.8799-2.082-5.5205-3.1201-11.7979-3.1201-18.8408,0-7.0381,1.5596-13.5186,4.6797-19.4395,3.1201-5.918,7.3984-11.04,12.8398-15.3608,5.4375-4.3193,11.7598-7.6797,18.96-10.0801,7.2002-2.3994,14.959-3.5996,23.2803-3.5996,9.4385,0,17.8799,1.1211,25.3203,3.3604,7.4395,2.2422,13.999,5.5605,19.6797,9.96,5.6777,4.4028,10.3574,9.7202,14.04,15.9604l-20.6396,20.3994c-3.2031-4.957-6.8027-9.0781-10.8008-12.3594-4.001-3.2783-8.3213-5.7607-12.96-7.4404-4.6426-1.6797-9.5205-2.5195-14.6396-2.5195-5.7598,0-10.7627,.8018-15,2.3994-4.2412,1.6016-7.5596,3.8818-9.96,6.8398-2.4004,2.9629-3.5996,6.5215-3.5996,10.6807,0,3.2021,.7197,6.041,2.1592,8.5195,1.4404,2.4824,3.4805,4.6797,6.1201,6.5996,2.6406,1.9209,6.0381,3.6006,10.2002,5.04,4.1592,1.4404,8.8799,2.7227,14.1602,3.8408,8.7979,1.7617,16.7178,4.1211,23.7598,7.0801,7.0391,2.9619,13.0391,6.4795,18,10.5596,4.958,4.0801,8.7188,8.7227,11.2803,13.9199,2.5576,5.2012,3.8398,11.0029,3.8398,17.4004,0,11.04-2.6025,20.5195-7.7998,28.4395-5.2012,7.9199-12.5215,14.0029-21.96,18.2402-9.4424,4.2373-20.4824,6.3604-33.1201,6.3604Z"/><path class="cls-1" d="M1257.5689,319.867c-12.08-11.9113-25.96-17.867-41.64-17.867h-143.99c-16.32,0-30.41,6.12-42.24,18.3599-11.85,12.2399-17.76,26.5746-17.76,43.004v65.7998c0,16.9224,5.95,31.3802,17.88,43.3737,11.91,11.9935,25.95,17.9902,42.12,17.9902h143.99c16.32,0,30.36-6.0789,42.12-18.2367,11.76-12.1577,17.64-26.5335,17.64-43.1272v-65.7998c0-17.0866-6.04-31.5856-18.12-43.497Zm-9.96,108.8039c0,8.8719-3.12,16.5938-9.36,23.1655-6,6.3254-13.12,9.601-21.34,9.8371-.32,.0206-.65,.0206-.98,.0206h-143.99c-8.64,0-16.2-3.3681-22.69-10.1041-6.47-6.7361-9.71-14.3757-9.71-22.9191v-64.8141c0-8.5433,3.19-16.1419,9.6-22.7958,6.39-6.6539,13.99-9.9808,22.8-9.9808h143.99c.35,0,.69,.0103,1.03,.0308,8.2,.2362,15.3,3.4707,21.29,9.7036,6.24,6.4896,9.36,14.1704,9.36,23.0423v64.8141Z"/><path class="cls-3" d="M412.4649,309.4512c0,30.77-24.944,55.7141-55.7141,55.7141s-55.7141-24.944-55.7141-55.7141M75.1848,499.5187c35.7299,36.1495,85.3412,58.549,140.1841,58.549,55.4598,0,105.5696-22.9063,141.3845-59.7741m.0004-273.5191c-35.815-36.868-85.9249-59.7745-141.3849-59.7745-54.8428,0-104.4539,22.3994-140.1838,58.5487m139.5847-58.4749V455.0266M18.2729,332.8151h113.8244"/></svg>